<svg id="icon" xmlns="http://www.w3.org/2000/svg" viewBox="0 0 64 64"><defs><style>.cls-1{fill:none;}.cls-2{fill:#0d9dda;}.cls-3{fill:#fff;}.cls-4{fill:#032d60;}</style></defs><path class="cls-1" d="M27.45,37H30a2,2,0,0,1,4,0h2.55L32,24.75Z"/><path class="cls-2" d="M24.12,20.13,13.26,49.38,18,51.12,28.28,23.28A10.08,10.08,0,0,1,24.12,20.13Z"/><path class="cls-2" d="M48.36,50.26h0l2.34-.87L39.89,20.13a10.17,10.17,0,0,1-4.17,3.15L46.05,51.12Z"/><path class="cls-3" d="M29.67,19.53l.46.17a6.12,6.12,0,0,0,1.51.28L32,20l.36,0a6.12,6.12,0,0,0,1.51-.28l.46-.17a6.11,6.11,0,0,0,2.76-2.36A6,6,0,0,0,38,14.71,5.52,5.52,0,0,0,38,14a5.79,5.79,0,0,0-.17-1.38,6,6,0,0,0-11.67,0A6.19,6.19,0,0,0,26,14a6.15,6.15,0,0,0,.92,3.17A6,6,0,0,0,29.67,19.53Z"/><path class="cls-3" d="M30,14a2,2,0,0,1,4,0v.05a2,2,0,0,1-.53,1.3,2,2,0,0,1-2.94,0A1.92,1.92,0,0,1,30,14.05.09.09,0,0,1,30,14Z"/><path class="cls-4" d="M57,39a2,2,0,0,0-2-2H50.41L42,14.29c0-.1,0-.19,0-.29a10,10,0,0,0-20,0c0,.1,0,.19,0,.29L13.59,37H9a2,2,0,0,0,0,4h3.11L8.82,49.86A2,2,0,0,0,10,52.43l2.34.87-1.5,4A2,2,0,0,0,12,59.87a1.93,1.93,0,0,0,.7.13,2,2,0,0,0,1.88-1.3l1.5-4,2.34.87a1.89,1.89,0,0,0,.7.13A2,2,0,0,0,21,54.39L26,41h4a2,2,0,0,0,4,0h4l5,13.39a2,2,0,0,0,1.87,1.3,1.93,1.93,0,0,0,.7-.13l2.34-.86,1.49,4A2,2,0,0,0,51.28,60a1.93,1.93,0,0,0,.7-.13,2,2,0,0,0,1.17-2.57l-1.49-4L54,52.43a2,2,0,0,0,1.18-2.57L51.89,41H55A2,2,0,0,0,57,39ZM34,37a2,2,0,0,0-4,0H27.45L32,24.75,36.55,37Z"/><path class="cls-2" d="M13.26,49.38,24.12,20.13a10.08,10.08,0,0,0,4.16,3.15L18,51.12Z"/><path class="cls-2" d="M35.72,23.28a10.17,10.17,0,0,0,4.17-3.15L50.74,49.38l-2.34.87h0l-2.31.86Z"/><path class="cls-3" d="M26,14a6.19,6.19,0,0,1,.16-1.37,6,6,0,0,1,11.67,0A5.79,5.79,0,0,1,38,14a5.52,5.52,0,0,1,0,.71,6,6,0,0,1-.86,2.46,6.11,6.11,0,0,1-2.76,2.36l-.46.17a6.12,6.12,0,0,1-1.51.28L32,20l-.36,0a6.12,6.12,0,0,1-1.51-.28l-.46-.17a6,6,0,0,1-2.75-2.36A6.15,6.15,0,0,1,26,14Z"/><path class="cls-4" d="M32,16a2,2,0,0,0,1.47-.65,2,2,0,0,0,.53-1.3V14a2,2,0,0,0-4,0,.09.09,0,0,0,0,.05,1.92,1.92,0,0,0,.52,1.29A2,2,0,0,0,32,16Z"/></svg>