<svg width="941" height="80" viewBox="0 0 941 80" fill="none" xmlns="http://www.w3.org/2000/svg">
<path d="M919.396 67.1266H836.077C824.573 67.1266 815.248 57.7999 815.248 46.2959C815.248 34.7933 824.573 25.4666 836.077 25.4666H919.396C930.9 25.4666 940.225 34.7933 940.225 46.2959C940.225 57.7999 930.9 67.1266 919.396 67.1266Z" fill="#CFE9FE"/>
<path d="M882.596 25.8139C882.596 26.7726 881.819 27.5499 880.86 27.5499C879.901 27.5499 879.124 26.7726 879.124 25.8139C879.124 24.8553 879.901 24.0779 880.86 24.0779C881.819 24.0779 882.596 24.8553 882.596 25.8139Z" fill="#1A96FF"/>
<path d="M800.726 25.6949C800.726 27.6602 799.132 29.2535 797.167 29.2535C795.202 29.2535 793.608 27.6602 793.608 25.6949C793.608 23.7295 795.202 22.1362 797.167 22.1362C799.132 22.1362 800.726 23.7295 800.726 25.6949Z" stroke="#1A96FF" stroke-width="2.66667" stroke-miterlimit="10" stroke-linecap="round" stroke-linejoin="round"/>
<path d="M863.909 67.3536C863.909 69.3189 862.316 70.9122 860.35 70.9122C858.385 70.9122 856.792 69.3189 856.792 67.3536C856.792 65.3882 858.385 63.7949 860.35 63.7949C862.316 63.7949 863.909 65.3882 863.909 67.3536Z" stroke="#1A96FF" stroke-width="2.66667" stroke-miterlimit="10" stroke-linecap="round" stroke-linejoin="round"/>
<path d="M645.024 70.6852H354.104C342.6 70.6852 333.274 61.3585 333.274 49.8545C333.274 38.3518 342.6 29.0252 354.104 29.0252H645.024C656.528 29.0252 665.854 38.3518 665.854 49.8545C665.854 61.3585 656.528 70.6852 645.024 70.6852Z" fill="#CFE9FE"/>
<path d="M561.706 49.8551H520.046C508.542 49.8551 499.216 40.5298 499.216 29.0258C499.216 17.5218 508.542 8.19644 520.046 8.19644H561.706C573.21 8.19644 582.535 17.5218 582.535 29.0258C582.535 40.5298 573.21 49.8551 561.706 49.8551Z" fill="#1A96FF"/>
<path d="M540.613 65.7319L539.421 68.9532C539.336 69.1839 539.154 69.3652 538.924 69.4505L535.702 70.6425C534.97 70.9132 534.97 71.9492 535.702 72.2212L538.924 73.4132C539.154 73.4985 539.336 73.6785 539.421 73.9092L540.613 77.1305C540.884 77.8639 541.92 77.8639 542.192 77.1305L543.384 73.9092C543.469 73.6785 543.65 73.4985 543.88 73.4132L547.102 72.2212C547.834 71.9492 547.834 70.9132 547.102 70.6425L543.88 69.4505C543.65 69.3652 543.469 69.1839 543.384 68.9532L542.192 65.7319C541.92 64.9999 540.884 64.9999 540.613 65.7319Z" stroke="#1A96FF" stroke-width="2.66667" stroke-miterlimit="10" stroke-linecap="round" stroke-linejoin="round"/>
<path d="M461.782 28.5586C461.782 30.524 460.189 32.1173 458.224 32.1173C456.258 32.1173 454.665 30.524 454.665 28.5586C454.665 26.5933 456.258 25 458.224 25C460.189 25 461.782 26.5933 461.782 28.5586Z" stroke="#1A96FF" stroke-width="2.66667" stroke-miterlimit="10" stroke-linecap="round" stroke-linejoin="round"/>
<path d="M628.42 28.5586C628.42 30.524 626.826 32.1173 624.861 32.1173C622.896 32.1173 621.302 30.524 621.302 28.5586C621.302 26.5933 622.896 25 624.861 25C626.826 25 628.42 26.5933 628.42 28.5586Z" stroke="#1A96FF" stroke-width="2.66667" stroke-miterlimit="10" stroke-linecap="round" stroke-linejoin="round"/>
<path d="M264.021 2.54926L262.829 5.77059C262.743 6.00126 262.562 6.18259 262.331 6.26793L259.11 7.45993C258.378 7.73059 258.378 8.76659 259.11 9.03726L262.331 10.2293C262.562 10.3146 262.743 10.4959 262.829 10.7266L264.021 13.9479C264.291 14.6813 265.327 14.6813 265.599 13.9479L266.791 10.7266C266.875 10.4959 267.057 10.3146 267.287 10.2293L270.509 9.03726C271.242 8.76659 271.242 7.73059 270.509 7.45993L267.287 6.26793C267.057 6.18259 266.875 6.00126 266.791 5.77059L265.599 2.54926C265.327 1.81726 264.291 1.81726 264.021 2.54926Z" stroke="#1A96FF" stroke-width="2.66667" stroke-miterlimit="10" stroke-linecap="round" stroke-linejoin="round"/>
<path d="M310.168 50.0831C310.168 52.0484 308.575 53.6417 306.609 53.6417C304.644 53.6417 303.051 52.0484 303.051 50.0831C303.051 48.1177 304.644 46.5244 306.609 46.5244C308.575 46.5244 310.168 48.1177 310.168 50.0831Z" stroke="#1A96FF" stroke-width="2.66667" stroke-miterlimit="10" stroke-linecap="round" stroke-linejoin="round"/>
<path d="M184.502 33.9437V25.8917" stroke="#1A96FF" stroke-width="2.66667" stroke-miterlimit="10" stroke-linecap="round" stroke-linejoin="round"/>
<path d="M188.527 29.9191H180.469" stroke="#1A96FF" stroke-width="2.66667" stroke-miterlimit="10" stroke-linecap="round" stroke-linejoin="round"/>
</svg>
